<svg width="28" height="34" fill="none" xmlns="http://www.w3.org/2000/svg"><path d="M9.31 33.201C4.49 33.173.5 23.33.5 18.317c0-8.19 6.143-9.982 8.51-9.982 1.067 0 2.207.42 3.212.79.702.258 1.429.525 1.833.525.242 0 .812-.227 1.316-.426 1.073-.427 2.409-.958 3.964-.958h.01c1.16 0 4.682.255 6.8 3.434l.495.745-.713.539c-1.02.77-2.88 2.173-2.88 4.953 0 3.292 2.107 4.559 3.119 5.168.447.268.91.546.91 1.152 0 .396-3.16 8.895-7.747 8.895-1.123 0-1.916-.337-2.616-.635-.709-.301-1.32-.56-2.329-.56-.512 0-1.159.241-1.844.498-.936.35-1.995.746-3.198.746h-.031zM19.821.8c.12 4.309-2.961 7.297-6.038 7.11C13.276 4.472 16.86.8 19.82.8z" fill="#000"/></svg>