<svg width="88" height="73" fill="none" xmlns="http://www.w3.org/2000/svg"><path d="M80.094 51.563H54.313c-4.213 0-7.96 2.031-10.313 5.166-2.353-3.135-6.1-5.166-10.313-5.166H7.907a2.58 2.58 0 00-2.579 2.578v2.578h21.62c6.032 0 12.032 1.194 17.052 4.54 5.018-3.345 11.018-4.54 17.052-4.54h21.62V54.14a2.58 2.58 0 00-2.578-2.578zM39.161 70.487c-2.857-2.293-6.966-3.456-12.214-3.456H2.578a2.578 2.578 0 010-5.156h24.37c6.45 0 11.645 1.545 15.44 4.59.941.756 2.282.756 3.223 0 3.796-3.045 8.991-4.59 15.442-4.59h24.369a2.578 2.578 0 010 5.156h-24.37c-5.247 0-9.356 1.163-12.213 3.456a7.739 7.739 0 01-9.678 0zM62.047 26.09v7.425a2.58 2.58 0 01-1.425 2.306l-11.402 5.7a14.115 14.115 0 00-3.438 2.42 2.581 2.581 0 01-3.564 0 14.115 14.115 0 00-3.438-2.42l-11.402-5.7a2.58 2.58 0 01-1.425-2.306V26.09l15.923 4.55a7.738 7.738 0 004.248 0l15.923-4.55zM72.36 23.145v15.527a2.58 2.58 0 01-5.157 0V24.618l5.156-1.473zM43.291 25.682L7.198 15.37c-2.483-.71-2.487-4.247 0-4.958L43.29.099a2.576 2.576 0 011.417 0l36.094 10.313c2.483.71 2.487 4.247 0 4.958L44.708 25.682a2.58 2.58 0 01-1.416 0z" fill="#FFD1C3"/></svg>