<svg width="84" height="84" fill="none" xmlns="http://www.w3.org/2000/svg"><g clip-path="url(#clip0)" fill="#066579"><path d="M1.23 23.368c.68 0 1.23-.551 1.23-1.23V2.46h19.677a1.23 1.23 0 100-2.46H1.23C.551 0 0 .551 0 1.23v20.907c0 .68.55 1.231 1.23 1.231zM22.137 81.54H2.46V61.862a1.23 1.23 0 10-2.46 0V82.77C0 83.45.55 84 1.23 84h20.907a1.23 1.23 0 000-2.46zM82.607 60.632c-.68 0-1.23.551-1.23 1.23V81.54H61.7a1.23 1.23 0 100 2.46h20.907c.68 0 1.23-.551 1.23-1.23V61.861c0-.679-.55-1.23-1.23-1.23zM82.607 0H61.7a1.23 1.23 0 000 2.46h19.677v19.677a1.23 1.23 0 102.46 0V1.23c0-.679-.55-1.23-1.23-1.23zM18.372 50.753a69.267 69.267 0 01-.248-1.598 1.23 1.23 0 10-2.435.349c.082.574.168 1.13.256 1.655a1.23 1.23 0 002.427-.406zM19.87 62.397a1.231 1.231 0 102.103-1.279 28.24 28.24 0 01-.783-1.368 1.23 1.23 0 10-2.17 1.16c.258.484.537.971.85 1.487zM67.884 51.206c.088-.522.174-1.079.257-1.655a1.23 1.23 0 10-2.435-.35 67.28 67.28 0 01-.249 1.597 1.23 1.23 0 002.427.408zM62.627 59.788c-.238.445-.495.892-.786 1.367a1.23 1.23 0 002.101 1.28c.314-.514.593-1 .853-1.484a1.23 1.23 0 00-2.168-1.163zM17.315 56.943a1.232 1.232 0 001.556.78 1.23 1.23 0 00.78-1.556c-.16-.48-.311-.986-.451-1.508a1.23 1.23 0 10-2.376.64c.152.566.317 1.12.491 1.644zM65.34 57.83a1.23 1.23 0 001.166-.842c.175-.522.342-1.076.495-1.643a1.23 1.23 0 10-2.375-.643 27.015 27.015 0 01-.453 1.507 1.23 1.23 0 001.167 1.62zM48.043 76.054a7.5 7.5 0 01-1.379.318A1.23 1.23 0 1047 78.81a9.977 9.977 0 001.823-.423 1.23 1.23 0 10-.78-2.333zM57.858 68.821a1.23 1.23 0 00-1.735.124c-.344.396-.705.804-1.074 1.212a1.23 1.23 0 001.822 1.652 75.52 75.52 0 001.112-1.252 1.23 1.23 0 00-.125-1.736zM52.252 73.099c-.418.417-.79.77-1.138 1.074a1.23 1.23 0 101.623 1.85c.389-.341.8-.729 1.256-1.186a1.23 1.23 0 00-1.741-1.738zM42.72 76.46h-1.647a1.23 1.23 0 100 2.461h1.647a1.23 1.23 0 100-2.46zM60.629 67.286c.215-.287.425-.575.626-.858.122-.17.24-.338.357-.504a1.23 1.23 0 00-2.01-1.419c-.115.164-.232.33-.352.496-.19.268-.389.54-.592.812a1.23 1.23 0 001.97 1.473zM27.686 68.912a1.23 1.23 0 00-1.86 1.61c.355.413.73.835 1.11 1.254a1.225 1.225 0 001.737.087 1.23 1.23 0 00.086-1.737 75.349 75.349 0 01-1.073-1.214zM24.588 65.004l-.378-.534a1.23 1.23 0 00-2.01 1.42l.382.539c.193.27.394.547.599.822a1.229 1.229 0 001.722.25 1.23 1.23 0 00.25-1.722c-.194-.26-.384-.52-.565-.775zM37.134 76.367a7.53 7.53 0 01-1.376-.325 1.231 1.231 0 00-.793 2.33c.584.198 1.18.339 1.823.43a1.23 1.23 0 00.347-2.436zM32.692 74.145a23.869 23.869 0 01-1.137-1.078 1.23 1.23 0 10-1.743 1.737c.455.457.866.846 1.253 1.187a1.226 1.226 0 001.736-.11c.449-.51.4-1.287-.11-1.736zM41.919 5.078c-9.288 0-16.307 2.782-20.86 8.27a1.23 1.23 0 101.893 1.57c4.064-4.896 10.446-7.38 18.967-7.38 15.557 0 23.631 8.039 24.684 24.575a1.23 1.23 0 102.455-.156C67.923 14.12 58.791 5.078 41.918 5.078zM67.962 35.74a1.224 1.224 0 00-1.247 1.213 86.444 86.444 0 01-.325 6.242H17.448c-.917-10.593.06-18.578 2.979-24.383a1.23 1.23 0 00-2.2-1.106C15.12 23.89 14.055 32.24 14.98 43.195H7.754a1.23 1.23 0 100 2.46h7.495a1.23 1.23 0 001.284.81c.487-.05.874-.379 1.029-.81h48.713a1.228 1.228 0 002.312 0h7.496a1.23 1.23 0 100-2.46h-7.225c.183-2.178.291-4.262.317-6.209a1.23 1.23 0 00-1.213-1.246z"/></g><defs><clipPath id="clip0"><path fill="#fff" d="M0 0h84v84H0z"/></clipPath></defs></svg>