<svg width="34" height="34" fill="none" xmlns="http://www.w3.org/2000/svg"><g clip-path="url(#clip0)"><path d="M8.395 17c0-1.604.442-3.108 1.21-4.396V7.143H4.143A16.077 16.077 0 00.801 17c0 3.612 1.175 7.043 3.342 9.858h5.462v-5.462a8.553 8.553 0 01-1.21-4.396z" fill="#FBBD00"/><path d="M17 25.607l-3.797 3.797L17 33.201c3.612 0 7.043-1.175 9.858-3.343v-5.456h-5.456A8.604 8.604 0 0117 25.607z" fill="#0F9D58"/><path d="M9.604 21.396l-5.461 5.462c.429.558.896 1.091 1.402 1.597A16.094 16.094 0 0017 33.2v-7.594a8.61 8.61 0 01-7.396-4.21z" fill="#31AA52"/><path d="M33.2 17c0-.985-.09-1.973-.265-2.935l-.143-.778H17v7.594h7.686a8.566 8.566 0 01-3.284 3.52l5.456 5.457c.558-.43 1.091-.897 1.597-1.403A16.094 16.094 0 0033.2 17z" fill="#3C79E6"/><path d="M23.086 10.915l.67.671 5.37-5.37-.67-.67A16.094 16.094 0 0017 .8l-3.797 3.797L17 8.395a8.55 8.55 0 016.086 2.52z" fill="#CF2D48"/><path d="M17 8.395V.8A16.094 16.094 0 005.545 5.546c-.506.505-.973 1.04-1.402 1.597l5.461 5.461A8.61 8.61 0 0117 8.394z" fill="#EB4132"/></g><defs><clipPath id="clip0"><path fill="#fff" transform="translate(.8 .8)" d="M0 0h32.4v32.4H0z"/></clipPath></defs></svg>