<svg width="32" height="32" fill="none" xmlns="http://www.w3.org/2000/svg"><path d="M4.622 1.625c-2.2 0-3.638 1.445-3.638 3.343 0 1.857 1.396 3.343 3.554 3.343h.042c2.243 0 3.639-1.486 3.639-3.343-.042-1.898-1.396-3.343-3.596-3.343zM1.365 10.951h6.431V30.3h-6.43V10.951zM23.58 10.498c-3.469 0-5.795 3.26-5.795 3.26v-2.806h-6.431V30.3h6.43V19.495c0-.578.042-1.155.212-1.57.465-1.154 1.523-2.35 3.3-2.35 2.327 0 3.258 1.774 3.258 4.375V30.3h6.43V19.206c0-5.942-3.173-8.708-7.404-8.708z" fill="#000"/></svg>