<svg width="44" height="44" fill="none" xmlns="http://www.w3.org/2000/svg"><circle opacity=".1" cx="22" cy="22" r="22" fill="#066579"/><path d="M11.92 30.685h20.16c1.195 0 1.92-.623 1.92-1.539 0-1.272-1.297-2.416-2.391-3.548-.84-.878-1.069-2.684-1.17-4.146-.09-4.884-1.387-8.255-4.77-9.476C25.186 10.323 23.876 9 21.994 9c-1.87 0-3.193 1.323-3.663 2.976-3.383 1.221-4.68 4.592-4.77 9.475-.101 1.463-.33 3.27-1.17 4.147C11.285 26.73 10 27.874 10 29.146c0 .916.712 1.54 1.92 1.54zm10.074 5.088c2.162 0 3.739-1.578 3.904-3.358h-7.796c.165 1.78 1.742 3.358 3.892 3.358z" fill="#066579"/></svg>