<svg width="24" height="25" fill="none" xmlns="http://www.w3.org/2000/svg"><g clip-path="url(#clip0)"><g clip-path="url(#clip1)"><path fill-rule="evenodd" clip-rule="evenodd" d="M22.851 22.562l-8.188-8.544c2.876-3.67 2.356-9.078-1.161-12.08-3.518-3-8.7-2.457-11.576 1.213C-.95 6.82-.43 12.229 3.086 15.23c3.03 2.585 7.386 2.585 10.416 0l8.188 8.544a.797.797 0 001.161-.021.884.884 0 000-1.191zM8.307 15.454c-3.627-.004-6.566-3.071-6.57-6.856 0-3.787 2.941-6.856 6.57-6.856 3.63 0 6.571 3.07 6.571 6.856 0 3.787-2.942 6.856-6.57 6.856z" fill="#066579"/></g></g><defs><clipPath id="clip0"><path fill="#fff" transform="translate(.067)" d="M0 0h23.067v24.021H0z"/></clipPath><clipPath id="clip1"><path fill="#fff" transform="translate(.067)" d="M0 0h23.014v24.014H0z"/></clipPath></defs></svg>